<?xml version="1.0" standalone="no"?>
<!DOCTYPE svg PUBLIC "-//W3C//DTD SVG 20010904//EN"
 "http://www.w3.org/TR/2001/REC-SVG-20010904/DTD/svg10.dtd">
<svg version="1.0" xmlns="http://www.w3.org/2000/svg"
 width="279.000000pt" height="279.000000pt" viewBox="0 0 279.000000 279.000000"
 preserveAspectRatio="xMidYMid meet">

<g transform="translate(0.000000,279.000000) scale(0.100000,-0.100000)"
fill="#000000" stroke="none">
<path d="M1250 2784 c-171 -22 -332 -70 -475 -141 -390 -196 -666 -559 -752
-990 -24 -122 -24 -394 0 -516 113 -565 549 -1001 1114 -1114 122 -24 394 -24
516 0 565 113 1001 549 1114 1114 24 122 24 394 0 516 -112 562 -552 1003
-1108 1112 -82 16 -338 28 -409 19z m491 -983 c179 -311 325 -567 323 -569 -1
-2 -32 13 -68 34 l-65 38 -268 467 -268 468 -58 -6 -57 -6 52 92 c51 88 53 90
68 69 8 -12 162 -276 341 -587z m-364 215 c-3 -8 -82 -147 -175 -309 -94 -163
-168 -298 -164 -301 3 -3 53 -6 112 -6 l106 0 65 114 c35 63 67 112 71 110 3
-2 23 -35 44 -72 20 -37 43 -76 50 -87 12 -18 6 -33 -49 -130 l-63 -110 -336
-3 -337 -2 186 322 c102 178 206 360 232 405 l46 83 109 0 c88 0 107 -3 103
-14z m-293 -1190 c25 -65 25 -65 50 12 27 79 46 70 46 -23 0 -43 -4 -75 -10
-75 -5 0 -10 26 -11 58 l0 57 -22 -57 c-11 -32 -26 -58 -32 -58 -6 0 -21 28
-32 63 l-21 62 -1 -62 c-1 -35 -5 -63 -11 -63 -6 0 -10 32 -10 76 0 64 2 75
16 72 9 -2 26 -28 38 -62z m236 34 c0 -28 2 -30 40 -30 38 0 40 2 40 30 0 17
5 30 10 30 6 0 10 -32 10 -75 0 -43 -4 -75 -10 -75 -5 0 -10 16 -10 35 0 34
-1 35 -40 35 -39 0 -40 -1 -40 -35 0 -19 -4 -35 -10 -35 -6 0 -10 32 -10 75 0
43 4 75 10 75 6 0 10 -13 10 -30z m170 -45 c0 -43 -4 -75 -10 -75 -6 0 -10 32
-10 75 0 43 4 75 10 75 6 0 10 -32 10 -75z m60 43 l0 -32 33 32 c45 43 59 41
17 -3 l-34 -35 39 -40 c27 -28 34 -40 23 -40 -9 0 -30 17 -47 37 l-31 38 0
-38 c0 -20 -4 -37 -10 -37 -6 0 -10 32 -10 75 0 43 4 75 10 75 6 0 10 -14 10
-32z m175 23 c-32 -5 -41 -11 -43 -28 -3 -20 1 -23 32 -23 20 0 36 -4 36 -10
0 -5 -16 -10 -35 -10 -31 0 -35 -3 -35 -25 0 -22 4 -25 40 -25 22 0 40 -4 40
-10 0 -5 -22 -10 -50 -10 l-50 0 0 75 0 75 53 -1 c51 -2 51 -2 12 -8z m-467
-68 c-10 -2 -26 -2 -35 0 -10 3 -2 5 17 5 19 0 27 -2 18 -5z m582 -58 c0 -59
-59 -125 -133 -147 -63 -19 -351 -15 -552 8 -118 13 -237 19 -390 19 -199 -1
-226 -3 -284 -22 -35 -12 -60 -18 -55 -13 17 15 106 40 183 51 88 13 307 6
516 -16 326 -34 536 -30 610 13 37 22 75 77 75 108 0 15 6 24 15 24 9 0 15 -9
15 -25z m44 -48 c-10 -33 -43 -76 -67 -88 -18 -10 -17 -7 5 16 16 15 33 45 38
67 6 21 15 36 21 32 5 -3 7 -15 3 -27z m-1187 -14 c-20 -2 -52 -2 -70 0 -17 2
0 4 38 4 39 0 53 -2 32 -4z m-114 -10 c-7 -2 -19 -2 -25 0 -7 3 -2 5 12 5 14
0 19 -2 13 -5z"/>
</g>
</svg>
